0
SECTION
2
HEADER
9
$INSUNITS
70
4
9
$ACADVER
1
AC1014
9
$HANDSEED
5
FFFF
0
ENDSEC
0
SECTION
2
TABLES
0
TABLE
2
VPORT
5
8
100
AcDbSymbolTable
0
ENDTAB
0
TABLE
2
LTYPE
5
5
100
AcDbSymbolTable
0
LTYPE
5
14
100
AcDbSymbolTableRecord
100
AcDbLinetypeTableRecord
2
BYBLOCK
70
0
0
LTYPE
5
15
100
AcDbSymbolTableRecord
100
AcDbLinetypeTableRecord
2
BYLAYER
70
0
0
ENDTAB
0
TABLE
2
LAYER
5
2
100
AcDbSymbolTable
70
2
0
LAYER
5
50
100
AcDbSymbolTableRecord
100
AcDbLayerTableRecord
2
0
70
0
6
CONTINUOUS
0
ENDTAB
0
TABLE
2
STYLE
5
3
100
AcDbSymbolTable
70
1
0
STYLE
5
11
100
AcDbSymbolTableRecord
100
AcDbTextStyleTableRecord
2
STANDARD
70
0
0
ENDTAB
0
TABLE
2
VIEW
5
6
100
AcDbSymbolTable
70
0
0
ENDTAB
0
TABLE
2
UCS
5
7
100
AcDbSymbolTable
70
0
0
ENDTAB
0
TABLE
2
APPID
5
9
100
AcDbSymbolTable
70
2
0
APPID
5
12
100
AcDbSymbolTableRecord
100
AcDbRegAppTableRecord
2
ACAD
70
0
0
ENDTAB
0
TABLE
2
DIMSTYLE
5
A
100
AcDbSymbolTable
70
1
0
ENDTAB
0
TABLE
2
BLOCK_RECORD
5
1
100
AcDbSymbolTable
70
1
0
BLOCK_RECORD
5
1F
100
AcDbSymbolTableRecord
100
AcDbBlockTableRecord
2
*MODEL_SPACE
0
BLOCK_RECORD
5
1B
100
AcDbSymbolTableRecord
100
AcDbBlockTableRecord
2
*PAPER_SPACE
0
ENDTAB
0
ENDSEC
0
SECTION
2
BLOCKS
0
BLOCK
5
20
100
AcDbEntity
100
AcDbBlockBegin
2
*MODEL_SPACE
0
ENDBLK
5
21
100
AcDbEntity
100
AcDbBlockEnd
0
BLOCK
5
1C
100
AcDbEntity
100
AcDbBlockBegin
2
*PAPER_SPACE
0
ENDBLK
5
1D
100
AcDbEntity
100
AcDbBlockEnd
0
ENDSEC
0
SECTION
2
ENTITIES
0
LWPOLYLINE
5
100
100
AcDbEntity
8
0
100
AcDbPolyline
90
32
70
1
43
0.0
10
2.6129912891093872
20
-11.996762183379788
10
2.6195901532150865
20
-17.30543249793768
10
31.324192993233101
20
-22.193640394673785
10
32.491645910218871
20
-18.878478150544822
10
35.399080389444862
20
-19.902347455803877
10
36.865927056800416
20
-15.737010576866734
10
23.218608961226572
20
-10.931031196051944
10
24.944569055262868
20
-6.0299018610929078
10
19.285233107577263
20
-4.0369350697906921
10
14.077233343091077
20
-7.7118446691919917
10
6.6828020024771817
20
-5.1078543565882519
10
2.6080191521209315
20
-7.9967652736492587
10
-2.588129256207897
20
-8.0032242690639084
10
-2.5935283491670269
20
-3.6597487771570054
10
-9.2902723305370394
20
-8.3763623266546183
10
-11.017755724499693
20
-5.9236478944704176
10
-4.3454000226194713
20
-1.2242113626115969
10
-8.4087605246844426
20
0.20672375355098416
10
-6.6828006545179637
20
5.1078524527971982
10
-2.608017804161713
20
7.996763369858205
10
-2.647794900069345
20
39.996738647702436
10
-7.0638610598849949
20
39.991249321987389
10
-7.0600294718729151
20
36.908804038745998
10
-10.574745382277772
20
36.904435123125204
10
-15.462953279020406
20
8.1998322831082824
10
-10.455691286308371
20
6.4364969803320085
10
-12.181651156474846
20
1.5353682810857943
10
-16.348012406268818
20
3.0025756863651103
10
-17.495546800229956
20
-3.7359918459020687
42
0.41421356237309509
10
-9.3162339757951855
20
-15.272838976727584
10
-2.5776664435282837
20
-16.420373370690449
10
-2.5831571192194414
20
-12.003221178794439
0
ENDSEC
0
SECTION
2
OBJECTS
0
DICTIONARY
5
C
100
AcDbDictionary
3
ACAD_GROUP
350
D
3
ACAD_MLINESTYLE
350
17
0
DICTIONARY
5
D
100
AcDbDictionary
0
DICTIONARY
5
1A
330
C
100
AcDbDictionary
0
DICTIONARY
5
17
100
AcDbDictionary
0
ENDSEC
0
EOF
