0
SECTION
2
HEADER
9
$INSUNITS
70
4
9
$ACADVER
1
AC1014
9
$HANDSEED
5
FFFF
0
ENDSEC
0
SECTION
2
TABLES
0
TABLE
2
VPORT
5
8
100
AcDbSymbolTable
0
ENDTAB
0
TABLE
2
LTYPE
5
5
100
AcDbSymbolTable
0
LTYPE
5
14
100
AcDbSymbolTableRecord
100
AcDbLinetypeTableRecord
2
BYBLOCK
70
0
0
LTYPE
5
15
100
AcDbSymbolTableRecord
100
AcDbLinetypeTableRecord
2
BYLAYER
70
0
0
ENDTAB
0
TABLE
2
LAYER
5
2
100
AcDbSymbolTable
70
2
0
LAYER
5
50
100
AcDbSymbolTableRecord
100
AcDbLayerTableRecord
2
0
70
0
6
CONTINUOUS
0
ENDTAB
0
TABLE
2
STYLE
5
3
100
AcDbSymbolTable
70
1
0
STYLE
5
11
100
AcDbSymbolTableRecord
100
AcDbTextStyleTableRecord
2
STANDARD
70
0
0
ENDTAB
0
TABLE
2
VIEW
5
6
100
AcDbSymbolTable
70
0
0
ENDTAB
0
TABLE
2
UCS
5
7
100
AcDbSymbolTable
70
0
0
ENDTAB
0
TABLE
2
APPID
5
9
100
AcDbSymbolTable
70
2
0
APPID
5
12
100
AcDbSymbolTableRecord
100
AcDbRegAppTableRecord
2
ACAD
70
0
0
ENDTAB
0
TABLE
2
DIMSTYLE
5
A
100
AcDbSymbolTable
70
1
0
ENDTAB
0
TABLE
2
BLOCK_RECORD
5
1
100
AcDbSymbolTable
70
1
0
BLOCK_RECORD
5
1F
100
AcDbSymbolTableRecord
100
AcDbBlockTableRecord
2
*MODEL_SPACE
0
BLOCK_RECORD
5
1B
100
AcDbSymbolTableRecord
100
AcDbBlockTableRecord
2
*PAPER_SPACE
0
ENDTAB
0
ENDSEC
0
SECTION
2
BLOCKS
0
BLOCK
5
20
100
AcDbEntity
100
AcDbBlockBegin
2
*MODEL_SPACE
0
ENDBLK
5
21
100
AcDbEntity
100
AcDbBlockEnd
0
BLOCK
5
1C
100
AcDbEntity
100
AcDbBlockBegin
2
*PAPER_SPACE
0
ENDBLK
5
1D
100
AcDbEntity
100
AcDbBlockEnd
0
ENDSEC
0
SECTION
2
ENTITIES
0
LWPOLYLINE
5
100
100
AcDbEntity
8
0
100
AcDbPolyline
90
4
70
1
43
0.0
10
-6.5385045924773042
20
-7.7979110312174633
10
-19.356597160563634
20
-16.849726700792854
10
-22.353960527538341
20
-12.60522123354059
10
-9.5358679594520233
20
-3.5534055639651898
0
LWPOLYLINE
5
101
100
AcDbEntity
8
0
100
AcDbPolyline
90
4
70
1
43
0.0
10
9.5314436954445387
20
-3.5652559408062601
10
22.338274918149523
20
-12.632997557832496
10
19.335637929482129
20
-16.873774011443629
10
6.5288067067771438
20
-7.8060323944173966
0
LWPOLYLINE
5
102
100
AcDbEntity
8
0
100
AcDbPolyline
90
31
70
1
43
0.0
10
-8.0189276904291642
20
2.5187028096971216
10
-4.4829275589730164
20
0.0018542486157102633
10
-4.4907908854515286
20
-0.0037230735988715829
10
-8.0304189059560009
20
2.5024731834842955
10
-15.627578091931335
20
7.8815615526746052
10
-36.229794964024947
20
-12.695062577636659
10
-34.202355170491792
20
-15.566078931103661
10
-36.720268720959616
20
-17.344166374851667
10
-28.628151091047172
20
-28.803249955908541
10
-26.110237540579352
20
-27.025162512160534
10
-24.082797747046172
20
-29.896178865627551
10
-1.5118919342381787
20
-19.133711606358553
10
-1.5000002194022057
20
0.00011307533556381699
10
-2.7755575615628914e-16
20
-3.212953689223197e-08
10
-5.091008890903391e-07
20
-0.0008191778394134986
10
1.4999992012004228
20
-0.0017514310143908265
10
1.4881074863644299
20
-19.135576112708499
10
24.04561807269555
20
-29.926090783707586
10
26.076624984763143
20
-27.057596763945572
10
28.592326420274912
20
-28.838812610665975
10
36.698681485435756
20
-17.389796416619951
10
34.182980049923991
20
-15.608580569899557
10
36.213986961991587
20
-12.740086550137546
10
15.637362831685007
20
7.8621303219607874
10
8.0335232864183705
20
2.4924894074817718
10
5.0361606759829751
20
6.736993781559387
10
11.911758401762251
20
11.59236857478809
10
7.0812797478344578
20
16.428855269300652
42
0.4142135623730952
10
-7.0608531445910856
20
16.437644636524777
10
-11.897339839104877
20
11.607165982598218
10
-5.0277826751861294
20
6.7432485448620021
0
ENDSEC
0
SECTION
2
OBJECTS
0
DICTIONARY
5
C
100
AcDbDictionary
3
ACAD_GROUP
350
D
3
ACAD_MLINESTYLE
350
17
0
DICTIONARY
5
D
100
AcDbDictionary
0
DICTIONARY
5
1A
330
C
100
AcDbDictionary
0
DICTIONARY
5
17
100
AcDbDictionary
0
ENDSEC
0
EOF
