0
SECTION
2
HEADER
9
$INSUNITS
70
4
9
$ACADVER
1
AC1014
9
$HANDSEED
5
FFFF
0
ENDSEC
0
SECTION
2
TABLES
0
TABLE
2
VPORT
5
8
100
AcDbSymbolTable
0
ENDTAB
0
TABLE
2
LTYPE
5
5
100
AcDbSymbolTable
0
LTYPE
5
14
100
AcDbSymbolTableRecord
100
AcDbLinetypeTableRecord
2
BYBLOCK
70
0
0
LTYPE
5
15
100
AcDbSymbolTableRecord
100
AcDbLinetypeTableRecord
2
BYLAYER
70
0
0
ENDTAB
0
TABLE
2
LAYER
5
2
100
AcDbSymbolTable
70
2
0
LAYER
5
50
100
AcDbSymbolTableRecord
100
AcDbLayerTableRecord
2
0
70
0
6
CONTINUOUS
0
ENDTAB
0
TABLE
2
STYLE
5
3
100
AcDbSymbolTable
70
1
0
STYLE
5
11
100
AcDbSymbolTableRecord
100
AcDbTextStyleTableRecord
2
STANDARD
70
0
0
ENDTAB
0
TABLE
2
VIEW
5
6
100
AcDbSymbolTable
70
0
0
ENDTAB
0
TABLE
2
UCS
5
7
100
AcDbSymbolTable
70
0
0
ENDTAB
0
TABLE
2
APPID
5
9
100
AcDbSymbolTable
70
2
0
APPID
5
12
100
AcDbSymbolTableRecord
100
AcDbRegAppTableRecord
2
ACAD
70
0
0
ENDTAB
0
TABLE
2
DIMSTYLE
5
A
100
AcDbSymbolTable
70
1
0
ENDTAB
0
TABLE
2
BLOCK_RECORD
5
1
100
AcDbSymbolTable
70
1
0
BLOCK_RECORD
5
1F
100
AcDbSymbolTableRecord
100
AcDbBlockTableRecord
2
*MODEL_SPACE
0
BLOCK_RECORD
5
1B
100
AcDbSymbolTableRecord
100
AcDbBlockTableRecord
2
*PAPER_SPACE
0
ENDTAB
0
ENDSEC
0
SECTION
2
BLOCKS
0
BLOCK
5
20
100
AcDbEntity
100
AcDbBlockBegin
2
*MODEL_SPACE
0
ENDBLK
5
21
100
AcDbEntity
100
AcDbBlockEnd
0
BLOCK
5
1C
100
AcDbEntity
100
AcDbBlockBegin
2
*PAPER_SPACE
0
ENDBLK
5
1D
100
AcDbEntity
100
AcDbBlockEnd
0
ENDSEC
0
SECTION
2
ENTITIES
0
ARC
5
100
100
AcDbEntity
8
0
100
AcDbCircle
10
-8.9969334637676307e-14
20
96.868842034160423
30
0
40
94.010197999866023
210
1.1324559364358089e-18
220
1.1470404398972233e-33
230
1
100
AcDbArc
50
270.00000000000006
51
280.14611791553426
0
ARC
5
101
100
AcDbEntity
8
0
100
AcDbCircle
10
16.112281233763209
20
6.8348205580026997
30
-2.2204460492503131e-15
40
2.5458299119318588
210
-1.2502488297384722e-16
220
8.5618783480607976e-16
230
1
100
AcDbArc
50
-79.853882084466164
51
100.14611912295211
0
SPLINE
5
102
100
AcDbEntity
8
0
100
AcDbSpline
70
0
71
3
72
11
73
7
74
0
42
0.000000001
43
0.0000000001
44
0.0000000001
40
-0.94481462850027698
40
-0.94481462850027698
40
-0.94481462850027698
40
-0.94481462850027698
40
-0.22690714175255267
40
-0.22690714175255267
40
-0.22690714175255267
40
-3.1579363917027829e-09
40
-3.1579363917027829e-09
40
-3.1579363917027829e-09
40
-3.1579363917027829e-09
10
-3.3697694002238567e-15
20
2.8586440342944188
30
0
10
4.0654470179584568
20
5.2430891054350584
30
0
10
7.9614193009520662
20
7.2341992727461406
30
0
10
11.902249915620242
20
8.4324712971926807
30
-2.2204460492503131e-15
10
13.147817923987661
20
8.8112059967803535
30
0
10
14.399966661932675
20
9.1103656879981116
30
0
10
15.663810061850651
20
9.3408380257091945
30
0
0
LINE
5
103
100
AcDbEntity
8
0
100
AcDbLine
10
7.8105644984314823e-15
20
37.73292259888003
30
-2.2204460492503131e-15
11
4.4017917721522387e-15
21
2.8586440342944064
31
-3.3306690738754696e-15
0
SPLINE
5
104
100
AcDbEntity
8
0
100
AcDbSpline
70
0
71
3
72
11
73
7
74
0
42
0.000000001
43
0.0000000001
44
0.0000000001
40
0
40
0
40
0
40
0
40
0.66131791310429444
40
0.66131791310429444
40
0.66131791310429444
40
1
40
1
40
1
40
1
10
8.3656760107440605e-15
20
37.732922598880037
30
-2.2204460492503131e-15
10
4.45190195054884
20
37.732922598880037
30
0
10
9.2330702133191274
20
38.271248753691005
30
-2.2204460492503131e-15
10
13.780912461384339
20
39.361073839988535
30
-2.2204460492503131e-15
10
16.1100081548867
20
39.919208176386505
30
-2.2204460492503131e-15
10
18.370384834819003
20
40.612427703468363
30
-2.2204460492503131e-15
10
20.508842754139479
20
41.403137888788315
30
-2.2204460492503131e-15
0
SPLINE
5
105
100
AcDbEntity
8
0
100
AcDbSpline
70
0
71
3
72
11
73
7
74
0
42
0.000000001
43
0.0000000001
44
0.0000000001
40
0
40
0
40
0
40
0
40
0.66131791309619437
40
0.66131791309619437
40
0.66131791309619437
40
1
40
1
40
1
40
1
10
20.503841514522247
20
41.401288946171952
30
-2.2204460492503131e-15
10
24.679579554693028
20
42.944870105905927
30
2.2204460492503131e-15
10
28.977508011671624
20
45.107548071751076
30
-2.2204460492503131e-15
10
32.865366414132218
20
47.706614225953146
30
-2.2204460492503131e-15
10
34.856463239510845
20
49.037679257875489
30
2.2204460492503131e-15
10
36.736266608772517
20
50.471623239033732
30
2.2204460492503131e-15
10
38.467911829635888
20
51.954738102819753
30
-2.2204460492503131e-15
0
SPLINE
5
106
100
AcDbEntity
8
0
100
AcDbSpline
70
0
71
3
72
11
73
7
74
0
42
0.000000001
43
0.0000000001
44
0.0000000001
40
0
40
0
40
0
40
0
40
0.66131791310429444
40
0.66131791310429444
40
0.66131791310429444
40
1
40
1
40
1
40
1
10
38.471961387528715
20
51.958206829874428
30
2.2204460492503131e-15
10
41.852947873841188
20
54.854473626402807
30
0
10
45.133776894689262
20
58.373781220495225
30
4.4408920985006262e-15
10
47.878619235526479
20
62.160128847953317
30
0
10
49.284340922136579
20
64.099238753748168
30
4.4408920985006262e-15
10
50.549991956778086
20
66.096232370768575
30
2.2204460492503131e-15
10
51.659627731829794
20
68.087948544473704
30
-4.4408920985006262e-15
0
LINE
5
107
100
AcDbEntity
8
0
100
AcDbLine
10
82.124906115373776
20
51.11496653147772
30
4.4408920985006262e-15
11
84.558359085429828
21
55.482839077931594
31
1.3877787807814457e-16
0
ARC
5
108
100
AcDbEntity
8
0
100
AcDbCircle
10
82.124906115373776
20
51.114966531477734
30
2.2204460492503131e-15
40
5.0000003939539708
210
-3.5372587758724688e-17
220
-2.1957162503379843e-17
230
1
100
AcDbArc
50
-148.1704917543083
51
60.876707493205814
0
SPLINE
5
109
100
AcDbEntity
8
0
100
AcDbSpline
70
0
71
3
72
11
73
7
74
0
42
0.000000001
43
0.0000000001
44
0.0000000001
40
-3.1579363917027829e-09
40
-3.1579363917027829e-09
40
-3.1579363917027829e-09
40
-3.1579363917027829e-09
40
0.48808372393638799
40
0.48808372393638799
40
0.48808372393638799
40
0.68430917339102371
40
0.68430917339102371
40
0.68430917339102371
40
0.68430917339102371
10
68.838798635621487
20
40.586284933745176
30
2.2204460492503131e-15
10
70.59799150800616
20
42.719665467434282
30
2.2204460492503131e-15
10
72.62472732003647
20
44.633387178997779
30
0
10
74.946627089675701
20
46.402088036824757
30
6.6613381477509392e-15
10
75.880105918397305
20
47.113163005138176
30
-2.2204460492503131e-15
10
76.859508538300872
20
47.802377828343296
30
6.6613381477509392e-15
10
77.876799832680206
20
48.477999153886714
30
-8.8817841970012523e-15
0
ARC
5
110
100
AcDbEntity
8
0
100
AcDbCircle
10
70.809724826818012
20
38.974857029884049
30
0
40
2.5458299119318193
210
3.2231644620281817e-17
220
-2.6352571696522767e-17
230
1
100
AcDbArc
50
-39.269410422329123
51
140.73059078508936
0
ARC
5
111
100
AcDbEntity
8
0
100
AcDbCircle
10
-5.2208895250349893e-13
20
96.868842034160224
30
-2.2204460492503131e-15
40
94.010197999866023
210
8.8811068556907521e-17
220
2.9844386018044024e-18
230
1
100
AcDbArc
50
310.5844716621371
51
320.73058957767125
0
ARC
5
112
100
AcDbEntity
8
0
100
AcDbCircle
10
61.153627693898791
20
25.4675034203119
30
-2.2204460492503127e-15
40
5.0000003939539708
210
-3.9135534936353916e-17
220
3.0255347883004189e-18
230
1
100
AcDbArc
50
-168.46789396853623
51
40.579305278977763
0
SPLINE
5
113
100
AcDbEntity
8
0
100
AcDbSpline
70
0
71
3
72
11
73
7
74
0
42
0.000000001
43
0.0000000001
44
0.0000000001
40
-3.1579363712567559e-09
40
-3.1579363712567559e-09
40
-3.1579363712567559e-09
40
-3.1579363712567559e-09
40
0.48808372393596244
40
0.48808372393596244
40
0.48808372393596244
40
0.68430917339102426
40
0.68430917339102426
40
0.68430917339102426
40
0.68430917339102426
10
45.04019823951063
20
20.201463222172737
30
-2.2204460492503131e-15
10
47.430208484123668
20
21.59211885690187
30
-2.2204460492503131e-15
10
49.994950363794182
20
22.683946650890508
30
-4.4408920985006262e-15
10
52.78622115836356
20
23.537368361474723
30
2.2204460492503131e-15
10
53.908402324853853
20
23.880471500215251
30
4.4408920985006262e-15
10
55.066072495165493
20
24.187141259364058
30
4.4408920985006262e-15
10
56.254563139052422
20
24.467918292877705
30
-1.1102230246251565e-14
0
ARC
5
114
100
AcDbEntity
8
0
100
AcDbCircle
10
46.329745840835002
20
18.006396725593376
30
-6.1629758220391547e-32
40
2.5458299119318237
210
2.3931423635804348e-17
220
1.405912303518819e-17
230
1
100
AcDbArc
50
-59.566812636556953
51
120.43318857086142
0
ARC
5
115
100
AcDbEntity
8
0
100
AcDbCircle
10
2.0828801794436913e-07
20
96.868842156540012
30
2.2204460492500875e-15
40
94.010197999868396
210
5.9828559830194304e-17
220
3.5147806327180341e-17
230
1
100
AcDbArc
50
290.28706944790946
51
300.43318736344332
0
ARC
5
116
100
AcDbEntity
8
0
100
AcDbCircle
10
32.603540901648891
20
8.693298663855586
30
0
40
5.0000003939539681
210
1.3716088384807057e-17
220
-2.1123242788181312e-18
230
1
100
AcDbArc
50
-188.75496341644532
51
20.292235831068535
0
SPLINE
5
117
100
AcDbEntity
8
0
100
AcDbSpline
70
0
71
3
72
11
73
7
74
0
42
0.000000001
43
0.0000000001
44
0.0000000001
40
-3.1579363917027829e-09
40
-3.1579363917027829e-09
40
-3.1579363917027829e-09
40
-3.1579363917027829e-09
40
0.48808372393638799
40
0.48808372393638799
40
0.48808372393638799
40
0.68430917339102371
40
0.68430917339102371
40
0.68430917339102371
40
0.68430917339102371
10
15.663810061850651
20
9.3408380257091945
30
0
10
18.387734952186239
20
9.8165535453034316
30
0
10
21.171941608235532
20
9.9513947018043254
30
0
10
24.085963852062928
20
9.7840757632237079
30
-2.2204460492503131e-15
10
25.257495072576933
20
9.7168081365795818
30
0
10
26.449681488547508
20
9.6030623059971205
30
2.2204460492503131e-15
10
27.661798869181315
20
9.4543437506166033
30
0
0
ARC
5
118
100
AcDbEntity
8
0
100
AcDbCircle
10
16.112281233763209
20
6.8348205580026997
30
-2.2204460492503131e-15
40
2.5458299119318211
210
2.2432128421464939e-17
220
3.2210923147166884e-17
230
1
100
AcDbArc
50
-79.853882084466164
51
100.1461191229521
0
ARC
5
119
100
AcDbEntity
8
0
100
AcDbCircle
10
-8.9969334637676307e-14
20
96.868842034160423
30
0
40
94.010197999866008
210
1.1324559364358445e-18
220
-3.5428806073573172e-17
230
1
100
AcDbArc
50
270.00000000000006
51
280.14611791553426
0
LINE
5
120
100
AcDbEntity
8
0
100
AcDbLine
10
51.659627731829794
20
68.087948544473704
30
-4.4408920985006277e-15
11
57.48710719235676
21
71.428278754731494
31
0
0
LINE
5
121
100
AcDbEntity
8
0
100
AcDbLine
10
57.48710719235676
20
71.428278754731494
30
0
11
82.264852327154173
21
57.623966278050531
31
7.2236525268202012e-15
0
LINE
5
122
100
AcDbEntity
8
0
100
AcDbLine
10
82.264852327154173
20
57.623966278050531
30
7.2236525268202012e-15
11
82.124906115373776
21
51.11496653147772
31
4.4408920985006262e-15
0
LINE
5
123
100
AcDbEntity
8
0
100
AcDbLine
10
60.343993858513649
20
63.257974988370442
30
0
11
73.44053998868992
21
55.944940087580981
31
0
0
LINE
5
124
100
AcDbEntity
8
0
100
AcDbLine
10
51.659627731829794
20
68.087948544473704
30
-4.4408920985006277e-15
11
82.124906115373776
21
51.11496653147772
31
4.4408920985006262e-15
0
LINE
5
125
100
AcDbEntity
8
0
100
AcDbLine
10
6.8392627036148322e-15
20
27.795783316587219
30
-2.7755575615628914e-15
11
5.373093566968888e-15
21
12.795783316587217
31
-2.9050881820421041e-15
0
LINE
5
126
100
AcDbEntity
8
0
100
AcDbLine
10
6.8392627036148322e-15
20
27.795783316587219
30
-2.7755575615628914e-15
11
-2.6280952740424053
21
29.618449219561587
31
0
0
LINE
5
127
100
AcDbEntity
8
0
100
AcDbLine
10
-2.6280952740424053
20
29.618449219561587
30
0
11
-7.8061327699284346
21
26.474640747295272
31
0
0
LINE
5
128
100
AcDbEntity
8
0
100
AcDbLine
10
-7.8061327699284346
20
26.474640747295272
30
0
11
-7.8061327699284337
21
20.27417468096727
31
-2.2168524944235541e-16
0
LINE
5
129
100
AcDbEntity
8
0
100
AcDbLine
10
6.8392627036148322e-15
20
12.795783316587217
30
-2.7755575615628914e-15
11
5.373093566968888e-15
21
27.795783316587219
31
-2.9050881820421041e-15
0
LINE
5
130
100
AcDbEntity
8
0
100
AcDbLine
10
6.8392627036148322e-15
20
12.795783316587217
30
-2.7755575615628914e-15
11
-2.6280952740424053
21
10.973117413612847
31
0
0
LINE
5
131
100
AcDbEntity
8
0
100
AcDbLine
10
-2.6280952740424053
20
10.973117413612847
30
0
11
-7.8061327699284337
21
14.116925885879159
31
0
0
LINE
5
132
100
AcDbEntity
8
0
100
AcDbLine
10
-7.8061327699284337
20
14.116925885879159
30
0
11
-7.8061327699284337
21
20.27417468096727
31
-2.2168524944235541e-16
0
ENDSEC
0
SECTION
2
OBJECTS
0
DICTIONARY
5
C
100
AcDbDictionary
3
ACAD_GROUP
350
D
3
ACAD_MLINESTYLE
350
17
0
DICTIONARY
5
D
100
AcDbDictionary
0
DICTIONARY
5
1A
330
C
100
AcDbDictionary
0
DICTIONARY
5
17
100
AcDbDictionary
0
ENDSEC
0
EOF
