0
SECTION
2
HEADER
9
$INSUNITS
70
4
9
$ACADVER
1
AC1014
9
$HANDSEED
5
FFFF
0
ENDSEC
0
SECTION
2
TABLES
0
TABLE
2
VPORT
5
8
100
AcDbSymbolTable
0
ENDTAB
0
TABLE
2
LTYPE
5
5
100
AcDbSymbolTable
0
LTYPE
5
14
100
AcDbSymbolTableRecord
100
AcDbLinetypeTableRecord
2
BYBLOCK
70
0
0
LTYPE
5
15
100
AcDbSymbolTableRecord
100
AcDbLinetypeTableRecord
2
BYLAYER
70
0
0
ENDTAB
0
TABLE
2
LAYER
5
2
100
AcDbSymbolTable
70
2
0
LAYER
5
50
100
AcDbSymbolTableRecord
100
AcDbLayerTableRecord
2
0
70
0
6
CONTINUOUS
0
ENDTAB
0
TABLE
2
STYLE
5
3
100
AcDbSymbolTable
70
1
0
STYLE
5
11
100
AcDbSymbolTableRecord
100
AcDbTextStyleTableRecord
2
STANDARD
70
0
0
ENDTAB
0
TABLE
2
VIEW
5
6
100
AcDbSymbolTable
70
0
0
ENDTAB
0
TABLE
2
UCS
5
7
100
AcDbSymbolTable
70
0
0
ENDTAB
0
TABLE
2
APPID
5
9
100
AcDbSymbolTable
70
2
0
APPID
5
12
100
AcDbSymbolTableRecord
100
AcDbRegAppTableRecord
2
ACAD
70
0
0
ENDTAB
0
TABLE
2
DIMSTYLE
5
A
100
AcDbSymbolTable
70
1
0
ENDTAB
0
TABLE
2
BLOCK_RECORD
5
1
100
AcDbSymbolTable
70
1
0
BLOCK_RECORD
5
1F
100
AcDbSymbolTableRecord
100
AcDbBlockTableRecord
2
*MODEL_SPACE
0
BLOCK_RECORD
5
1B
100
AcDbSymbolTableRecord
100
AcDbBlockTableRecord
2
*PAPER_SPACE
0
ENDTAB
0
ENDSEC
0
SECTION
2
BLOCKS
0
BLOCK
5
20
100
AcDbEntity
100
AcDbBlockBegin
2
*MODEL_SPACE
0
ENDBLK
5
21
100
AcDbEntity
100
AcDbBlockEnd
0
BLOCK
5
1C
100
AcDbEntity
100
AcDbBlockBegin
2
*PAPER_SPACE
0
ENDBLK
5
1D
100
AcDbEntity
100
AcDbBlockEnd
0
ENDSEC
0
SECTION
2
ENTITIES
0
SPLINE
5
100
100
AcDbEntity
8
0
100
AcDbSpline
70
0
71
3
72
11
73
7
74
0
42
0.000000001
43
0.0000000001
44
0.0000000001
40
0
40
0
40
0
40
0
40
0.66131791310429444
40
0.66131791310429444
40
0.66131791310429444
40
1
40
1
40
1
40
1
10
5.5511151231257827e-15
20
37.732922598880045
30
-2.2204460492503131e-15
10
4.4519019505488346
20
37.732922598880045
30
-2.2204460492503131e-15
10
9.2330702133191203
20
38.271248753691005
30
-2.2204460492503131e-15
10
13.780912461384332
20
39.361073839988542
30
-2.2204460492503131e-15
10
16.110008154886692
20
39.919208176386505
30
-6.6613381477509392e-15
10
18.370384834818992
20
40.612427703468363
30
-2.2204460492503131e-15
10
20.508842754139472
20
41.403137888788315
30
-2.2204460492503131e-15
0
LINE
5
101
100
AcDbEntity
8
0
100
AcDbLine
10
5.5511151231257827e-15
20
37.732922598880045
30
-2.2204460492503131e-15
11
-3.3306690738754696e-15
21
2.8586440342944242
31
0
0
SPLINE
5
102
100
AcDbEntity
8
0
100
AcDbSpline
70
0
71
3
72
14
73
10
74
0
42
0.000000001
43
0.0000000001
44
0.0000000001
40
-0.94481462850027698
40
-0.94481462850027698
40
-0.94481462850027698
40
-0.94481462850027698
40
-0.22690714175255267
40
-0.22690714175255267
40
-0.22690714175255267
40
0.48808372393638799
40
0.48808372393638799
40
0.48808372393638799
40
0.94481462850027498
40
0.94481462850027498
40
0.94481462850027498
40
0.94481462850027498
10
-7.7715611723760958e-15
20
2.8586440342944335
30
0
10
4.0654470179584496
20
5.2430891054350734
30
0
10
7.9614193009520582
20
7.234199272746153
30
0
10
11.902249915620235
20
8.4324712971926914
30
-4.4408920985006262e-15
10
15.827070236800722
20
9.6258751380847123
30
0
10
19.817230495278963
20
10.029180252681101
30
0
10
24.085963852062918
20
9.7840757632237203
30
-2.2204460492503131e-15
10
26.812799313810181
20
9.6275048186779166
30
-2.2204460492503131e-15
10
29.651537186105216
20
9.2191317031206452
30
-4.4408920985006262e-15
10
32.603540901648877
20
8.6932986638555967
30
-4.4408920985006262e-15
0
SPLINE
5
103
100
AcDbEntity
8
0
100
AcDbSpline
70
0
71
3
72
11
73
7
74
0
42
0.000000001
43
0.0000000001
44
0.0000000001
40
0
40
0
40
0
40
0
40
0.66131791310429444
40
0.66131791310429444
40
0.66131791310429444
40
1
40
1
40
1
40
1
10
38.471961387528651
20
51.958206829874413
30
-2.2204460492503131e-15
10
35.090974901216157
20
49.061940033346033
30
-6.6613381477509392e-15
10
31.109709893591887
20
46.360293508550107
30
-4.4408920985006262e-15
10
26.946855994311374
20
44.229276088336171
30
-2.2204460492503131e-15
10
24.814925166319561
20
43.137913805858076
30
-2.2204460492503131e-15
10
22.64730067345991
20
42.19384807410826
30
-2.2204460492503131e-15
10
20.508842754139426
20
41.403137888788322
30
-2.2204460492503131e-15
0
SPLINE
5
104
100
AcDbEntity
8
0
100
AcDbSpline
70
0
71
3
72
11
73
7
74
0
42
0.000000001
43
0.0000000001
44
0.0000000001
40
0
40
0
40
0
40
0
40
0.66131791310429444
40
0.66131791310429444
40
0.66131791310429444
40
1
40
1
40
1
40
1
10
38.471961387528694
20
51.958206829874428
30
-1.1102230246251565e-14
10
41.852947873841174
20
54.8544736264028
30
-6.6613381477509392e-15
10
45.133776894689241
20
58.373781220495211
30
-6.6613381477509392e-15
10
47.878619235526457
20
62.160128847953317
30
-6.6613381477509392e-15
10
49.284340922136565
20
64.099238753748168
30
-4.4408920985006262e-15
10
50.549991956778072
20
66.096232370768575
30
-8.8817841970012523e-15
10
51.659627731829772
20
68.087948544473704
30
-2.2204460492503131e-15
0
LINE
5
105
100
AcDbEntity
8
0
100
AcDbLine
10
51.659627731829772
20
68.087948544473704
30
-2.2204460492503174e-15
11
82.124906115373747
21
51.114966531477734
31
-8.3266726846886741e-15
0
SPLINE
5
106
100
AcDbEntity
8
0
100
AcDbSpline
70
0
71
3
72
14
73
10
74
0
42
0.000000001
43
0.0000000001
44
0.0000000001
40
-0.94481462850027698
40
-0.94481462850027698
40
-0.94481462850027698
40
-0.94481462850027698
40
-0.22690714175255267
40
-0.22690714175255267
40
-0.22690714175255267
40
0.48808372393638799
40
0.48808372393638799
40
0.48808372393638799
40
0.94481462850027498
40
0.94481462850027498
40
0.94481462850027498
40
0.94481462850027498
10
61.160065524017817
20
25.473017835039194
30
-6.6613381477509392e-15
10
62.696315067879276
20
29.928730470757486
30
-2.2204460492503131e-15
10
64.359748687104258
20
33.975470927304727
30
-1.1102230246251565e-14
10
66.57304531512446
20
37.449275731042491
30
-2.2204460492503131e-15
10
68.777350049796581
20
40.908967612946007
30
-1.1102230246251565e-14
10
71.545290322681836
20
43.811128971233764
30
-1.1102230246251565e-14
10
74.946627089675673
20
46.402088036824757
30
-1.1102230246251565e-14
10
77.119375991605509
20
48.057173625330989
30
-8.8817841970012523e-15
10
79.540923455890379
20
49.593828820007928
30
-1.1102230246251565e-14
10
82.124906115373747
20
51.114966531477734
30
-2.2204460492503131e-15
0
SPLINE
5
107
100
AcDbEntity
8
0
100
AcDbSpline
70
0
71
3
72
14
73
10
74
0
42
0.000000001
43
0.0000000001
44
0.0000000001
40
-0.94481462850027698
40
-0.94481462850027698
40
-0.94481462850027698
40
-0.94481462850027698
40
-0.22690714175255267
40
-0.22690714175255267
40
-0.22690714175255267
40
0.48808372393638799
40
0.48808372393638799
40
0.48808372393638799
40
0.94481462850027498
40
0.94481462850027498
40
0.94481462850027498
40
0.94481462850027498
10
61.160065524017789
20
25.473017835039194
30
-1.1102230246251565e-14
10
56.521326678100152
20
24.639027623772357
30
-6.6613381477509392e-15
10
52.267186286861801
20
23.616575052814465
30
-6.6613381477509392e-15
10
48.494773795031747
20
21.962820001556356
30
-2.2204460492503131e-15
10
44.737687369469555
20
20.315783610985886
30
-8.8817841970012523e-15
10
41.444991958106215
20
18.026200497887459
30
-2.2204460492503131e-15
10
38.362569669634482
20
15.062953373936283
30
0
10
36.393540990219066
20
13.170052912803168
30
-2.2204460492503131e-15
10
34.503342827118864
20
11.013121710069822
30
-4.4408920985006262e-15
10
32.603540901648842
20
8.6932986638555896
30
-2.2204460492503131e-15
0
SPLINE
5
108
100
AcDbEntity
8
0
100
AcDbSpline
70
0
71
3
72
11
73
7
74
0
42
0.000000001
43
0.0000000001
44
0.0000000001
40
0
40
0
40
0
40
0
40
0.66131791310429444
40
0.66131791310429444
40
0.66131791310429444
40
1
40
1
40
1
40
1
10
5.5511151231257827e-15
20
37.732922598880045
30
-2.2204460492503131e-15
10
4.4519019505488346
20
37.732922598880045
30
-2.2204460492503131e-15
10
9.2330702133191203
20
38.271248753691005
30
-2.2204460492503131e-15
10
13.780912461384332
20
39.361073839988542
30
-2.2204460492503131e-15
10
16.110008154886692
20
39.919208176386505
30
-6.6613381477509392e-15
10
18.370384834818992
20
40.612427703468363
30
-2.2204460492503131e-15
10
20.508842754139472
20
41.403137888788315
30
-2.2204460492503131e-15
0
LINE
5
109
100
AcDbEntity
8
0
100
AcDbLine
10
5.5511151231257827e-15
20
37.732922598880045
30
-2.2204460492503131e-15
11
-3.3306690738754696e-15
21
2.8586440342944242
31
0
0
SPLINE
5
110
100
AcDbEntity
8
0
100
AcDbSpline
70
0
71
3
72
14
73
10
74
0
42
0.000000001
43
0.0000000001
44
0.0000000001
40
-0.94481462850027698
40
-0.94481462850027698
40
-0.94481462850027698
40
-0.94481462850027698
40
-0.22690714175255267
40
-0.22690714175255267
40
-0.22690714175255267
40
0.48808372393638799
40
0.48808372393638799
40
0.48808372393638799
40
0.94481462850027498
40
0.94481462850027498
40
0.94481462850027498
40
0.94481462850027498
10
-7.7715611723760958e-15
20
2.8586440342944335
30
0
10
4.0654470179584496
20
5.2430891054350734
30
0
10
7.9614193009520582
20
7.234199272746153
30
0
10
11.902249915620235
20
8.4324712971926914
30
-4.4408920985006262e-15
10
15.827070236800722
20
9.6258751380847123
30
0
10
19.817230495278963
20
10.029180252681101
30
0
10
24.085963852062918
20
9.7840757632237203
30
-2.2204460492503131e-15
10
26.812799313810181
20
9.6275048186779166
30
-2.2204460492503131e-15
10
29.651537186105216
20
9.2191317031206452
30
-4.4408920985006262e-15
10
32.603540901648877
20
8.6932986638555967
30
-4.4408920985006262e-15
0
ENDSEC
0
SECTION
2
OBJECTS
0
DICTIONARY
5
C
100
AcDbDictionary
3
ACAD_GROUP
350
D
3
ACAD_MLINESTYLE
350
17
0
DICTIONARY
5
D
100
AcDbDictionary
0
DICTIONARY
5
1A
330
C
100
AcDbDictionary
0
DICTIONARY
5
17
100
AcDbDictionary
0
ENDSEC
0
EOF
